<svg xmlns="http://www.w3.org/2000/svg" width="796" height="246" viewBox="0 0 796 246"><path d="M 706,211 L 704,213 L 704,214 L 703,215 L 703,216 L 702,217 L 702,218 L 701,219 L 701,221 L 700,222 L 700,223 L 699,224 L 699,225 L 698,226 L 698,228 L 697,229 L 697,230 L 696,231 L 696,232 L 695,233 L 695,234 L 694,235 L 694,239 L 702,239 L 707,234 L 714,234 L 715,235 L 715,236 L 716,237 L 716,238 L 717,239 L 725,239 L 726,238 L 726,231 L 725,230 L 725,225 L 724,224 L 724,219 L 723,218 L 723,214 L 722,213 L 722,212 L 721,211 Z" fill="green" /><path d="M 645,211 L 643,213 L 643,216 L 642,217 L 642,224 L 641,225 L 641,231 L 640,232 L 640,238 L 641,239 L 649,239 L 651,237 L 651,235 L 653,233 L 655,235 L 655,236 L 656,237 L 656,238 L 657,239 L 665,239 L 666,238 L 666,233 L 665,232 L 665,229 L 668,226 L 668,224 L 669,223 L 669,215 L 666,212 L 665,212 L 664,211 Z" fill="green" /><path d="M 530,211 L 528,213 L 528,220 L 527,221 L 527,228 L 526,229 L 526,239 L 546,239 L 547,238 L 548,238 L 549,237 L 550,237 L 554,233 L 554,232 L 555,231 L 555,230 L 556,229 L 556,224 L 557,223 L 557,218 L 556,217 L 556,216 L 555,215 L 555,214 L 554,213 L 553,213 L 552,212 L 550,212 L 549,211 Z" fill="green" /><path d="M 489,211 L 488,212 L 488,214 L 487,215 L 487,223 L 486,224 L 486,229 L 485,230 L 485,238 L 486,239 L 494,239 L 495,238 L 495,234 L 496,233 L 496,228 L 497,227 L 497,221 L 498,220 L 498,212 L 497,211 Z" fill="green" /><path d="M 430,211 L 429,212 L 429,214 L 428,215 L 428,222 L 427,223 L 427,234 L 428,235 L 428,236 L 429,237 L 430,237 L 432,239 L 446,239 L 447,238 L 448,238 L 449,237 L 450,237 L 455,232 L 455,230 L 456,229 L 456,225 L 457,224 L 457,218 L 458,217 L 458,212 L 457,211 L 448,211 L 448,212 L 447,213 L 447,220 L 446,221 L 446,226 L 445,227 L 445,229 L 442,232 L 440,232 L 438,230 L 438,223 L 439,222 L 439,215 L 440,214 L 440,213 L 439,212 L 439,211 Z" fill="green" /><path d="M 376,211 L 375,212 L 375,215 L 374,216 L 374,220 L 373,221 L 373,228 L 372,229 L 372,239 L 393,239 L 394,238 L 396,238 L 399,235 L 399,232 L 400,231 L 400,230 L 399,229 L 399,226 L 398,225 L 398,223 L 400,221 L 400,219 L 401,218 L 401,216 L 400,215 L 400,214 L 399,213 L 399,212 L 398,212 L 397,211 Z" fill="green" /><path d="M 336,211 L 336,213 L 335,214 L 335,220 L 334,221 L 334,225 L 333,226 L 333,232 L 332,233 L 332,238 L 333,239 L 342,239 L 342,238 L 343,237 L 343,233 L 344,232 L 344,224 L 345,223 L 345,218 L 346,217 L 346,212 L 345,211 Z" fill="green" /><path d="M 282,211 L 280,213 L 280,218 L 279,219 L 279,224 L 278,225 L 278,235 L 277,236 L 278,237 L 278,239 L 286,239 L 287,238 L 287,237 L 288,236 L 288,235 L 289,234 L 291,234 L 292,235 L 292,237 L 294,239 L 302,239 L 303,238 L 303,234 L 302,233 L 302,229 L 304,227 L 304,226 L 305,225 L 305,224 L 306,223 L 306,216 L 305,215 L 305,214 L 303,212 L 302,212 L 301,211 Z" fill="green" /><path d="M 230,211 L 229,212 L 229,217 L 230,218 L 233,218 L 234,219 L 234,229 L 233,230 L 233,238 L 234,239 L 242,239 L 243,238 L 243,234 L 244,233 L 244,225 L 245,224 L 245,221 L 246,220 L 246,219 L 247,218 L 251,218 L 253,216 L 253,212 L 252,211 Z" fill="green" /><path d="M 137,211 L 136,212 L 136,213 L 135,214 L 135,218 L 134,219 L 134,226 L 133,227 L 133,235 L 132,236 L 132,238 L 133,239 L 141,239 L 143,237 L 143,231 L 144,230 L 144,224 L 145,223 L 145,218 L 146,217 L 146,212 L 145,211 Z" fill="green" /><path d="M 80,211 L 78,213 L 78,215 L 77,216 L 77,223 L 76,224 L 76,231 L 75,232 L 75,238 L 76,239 L 95,239 L 96,238 L 98,238 L 99,237 L 100,237 L 103,234 L 103,233 L 104,232 L 104,231 L 105,230 L 105,226 L 106,225 L 106,217 L 105,216 L 105,215 L 102,212 L 100,212 L 99,211 Z" fill="green" /><path d="M 598,210 L 597,211 L 592,211 L 591,212 L 590,212 L 588,214 L 587,214 L 586,215 L 586,216 L 584,218 L 584,220 L 583,221 L 583,226 L 582,227 L 582,230 L 583,231 L 583,234 L 587,238 L 588,238 L 589,239 L 603,239 L 604,238 L 605,238 L 606,237 L 607,237 L 611,233 L 611,232 L 612,231 L 612,228 L 613,227 L 613,217 L 612,216 L 612,215 L 609,212 L 608,212 L 607,211 L 603,211 L 602,210 Z" fill="green" /><path d="M 185,210 L 184,211 L 181,211 L 180,212 L 179,212 L 178,213 L 177,213 L 175,215 L 175,216 L 174,217 L 174,223 L 175,224 L 175,225 L 177,227 L 177,228 L 176,229 L 175,229 L 174,230 L 173,230 L 172,231 L 172,234 L 173,235 L 173,236 L 174,237 L 175,237 L 177,239 L 191,239 L 192,238 L 194,238 L 195,237 L 196,237 L 199,234 L 199,232 L 200,231 L 200,227 L 199,226 L 199,225 L 198,224 L 197,224 L 195,222 L 195,221 L 196,220 L 199,220 L 200,219 L 201,219 L 201,215 L 198,212 L 197,212 L 196,211 L 194,211 L 193,210 Z" fill="green" /><path d="M 681,124 L 680,125 L 678,125 L 677,126 L 675,126 L 674,127 L 672,127 L 670,129 L 669,129 L 667,131 L 666,131 L 662,135 L 662,136 L 660,138 L 660,139 L 659,140 L 659,141 L 658,142 L 658,143 L 657,144 L 657,148 L 656,149 L 656,153 L 657,154 L 657,157 L 658,158 L 658,160 L 659,161 L 659,162 L 661,164 L 661,165 L 667,171 L 668,171 L 670,173 L 671,173 L 672,174 L 673,174 L 674,175 L 676,175 L 677,176 L 680,176 L 681,177 L 695,177 L 696,176 L 700,176 L 701,175 L 703,175 L 704,174 L 705,174 L 707,172 L 708,172 L 710,170 L 711,170 L 711,169 L 713,167 L 714,167 L 715,166 L 715,165 L 717,163 L 717,162 L 718,161 L 718,160 L 719,159 L 719,156 L 720,155 L 720,146 L 719,145 L 719,142 L 718,141 L 718,140 L 717,139 L 717,138 L 713,134 L 713,133 L 712,133 L 708,129 L 707,129 L 706,128 L 705,128 L 704,127 L 703,127 L 702,126 L 699,126 L 698,125 L 696,125 L 695,124 Z" fill="green" /><path d="M 108,124 L 107,125 L 104,125 L 103,126 L 102,126 L 101,127 L 99,127 L 98,128 L 97,128 L 95,130 L 94,130 L 88,136 L 88,137 L 86,139 L 86,140 L 85,141 L 85,142 L 84,143 L 84,147 L 83,148 L 83,153 L 84,154 L 84,158 L 85,159 L 85,160 L 86,161 L 86,162 L 87,163 L 87,164 L 88,165 L 88,166 L 92,170 L 93,170 L 95,172 L 96,172 L 98,174 L 99,174 L 100,175 L 103,175 L 104,176 L 107,176 L 108,177 L 122,177 L 123,176 L 127,176 L 128,175 L 129,175 L 130,174 L 131,174 L 132,173 L 133,173 L 134,172 L 135,172 L 137,170 L 138,170 L 142,166 L 142,165 L 144,163 L 144,162 L 145,161 L 145,160 L 146,159 L 146,157 L 147,156 L 147,146 L 146,145 L 146,143 L 145,142 L 145,141 L 144,140 L 144,139 L 143,138 L 143,137 L 135,129 L 134,129 L 133,128 L 132,128 L 131,127 L 129,127 L 128,126 L 127,126 L 126,125 L 123,125 L 122,124 Z" fill="green" /><path d="M 234,6 L 233,7 L 233,11 L 232,12 L 232,47 L 233,48 L 233,73 L 234,74 L 234,82 L 235,83 L 235,86 L 236,87 L 236,89 L 237,90 L 237,92 L 238,93 L 238,94 L 240,96 L 240,97 L 242,99 L 242,100 L 249,107 L 250,107 L 253,110 L 254,110 L 255,111 L 256,111 L 257,112 L 258,112 L 259,113 L 261,113 L 262,114 L 263,114 L 264,115 L 267,115 L 268,116 L 271,116 L 272,117 L 279,117 L 280,118 L 391,118 L 392,117 L 400,117 L 401,116 L 404,116 L 405,115 L 408,115 L 409,114 L 410,114 L 411,113 L 412,113 L 413,112 L 414,112 L 415,111 L 416,111 L 417,110 L 418,110 L 419,109 L 420,109 L 424,105 L 425,105 L 430,100 L 430,99 L 432,97 L 432,96 L 434,94 L 434,93 L 435,92 L 435,91 L 436,90 L 436,88 L 437,87 L 437,83 L 438,82 L 438,78 L 439,77 L 439,40 L 440,39 L 440,38 L 441,37 L 442,37 L 443,36 L 495,36 L 496,37 L 497,37 L 498,38 L 498,116 L 500,118 L 547,118 L 548,117 L 551,117 L 551,38 L 552,37 L 553,37 L 554,36 L 634,36 L 635,37 L 636,37 L 637,38 L 636,39 L 636,40 L 634,42 L 634,43 L 632,45 L 632,46 L 628,50 L 628,51 L 624,55 L 624,56 L 622,58 L 622,59 L 619,62 L 619,63 L 616,66 L 616,67 L 612,71 L 612,72 L 609,75 L 609,76 L 607,78 L 607,79 L 602,84 L 602,85 L 600,87 L 600,88 L 596,92 L 596,93 L 592,97 L 592,98 L 590,100 L 590,101 L 586,105 L 586,106 L 584,108 L 584,109 L 581,112 L 581,113 L 579,115 L 579,117 L 580,118 L 639,118 L 640,117 L 642,117 L 644,115 L 644,114 L 645,113 L 645,112 L 647,110 L 647,109 L 649,107 L 649,106 L 651,104 L 651,103 L 655,99 L 722,99 L 726,103 L 726,104 L 727,105 L 727,106 L 729,108 L 729,109 L 730,110 L 730,111 L 732,113 L 732,114 L 734,116 L 734,117 L 736,117 L 737,118 L 795,118 L 795,110 L 789,104 L 789,103 L 786,100 L 786,99 L 783,96 L 783,95 L 779,91 L 779,90 L 776,87 L 776,86 L 773,83 L 773,82 L 769,78 L 769,77 L 767,75 L 767,74 L 764,71 L 764,70 L 760,66 L 760,65 L 757,62 L 757,61 L 754,58 L 754,57 L 751,54 L 751,53 L 748,50 L 748,49 L 744,45 L 744,44 L 741,41 L 741,40 L 738,37 L 738,36 L 735,33 L 735,32 L 732,29 L 732,28 L 728,24 L 728,23 L 725,20 L 725,19 L 722,16 L 722,15 L 719,12 L 719,11 L 714,6 Z" fill="green" /><path d="M 68,6 L 66,8 L 66,35 L 67,36 L 67,39 L 136,39 L 137,40 L 137,76 L 136,77 L 136,79 L 131,84 L 130,84 L 128,86 L 126,86 L 125,87 L 71,87 L 70,86 L 68,86 L 67,85 L 66,85 L 65,84 L 64,84 L 63,83 L 63,82 L 60,79 L 60,78 L 59,77 L 59,75 L 58,74 L 58,72 L 57,71 L 57,68 L 56,67 L 49,67 L 48,66 L 10,66 L 9,67 L 2,67 L 2,78 L 3,79 L 3,83 L 4,84 L 4,87 L 5,88 L 5,90 L 6,91 L 6,92 L 7,93 L 7,94 L 8,95 L 8,96 L 10,98 L 10,99 L 18,107 L 19,107 L 22,110 L 23,110 L 24,111 L 25,111 L 26,112 L 27,112 L 28,113 L 29,113 L 30,114 L 31,114 L 32,115 L 35,115 L 36,116 L 39,116 L 40,117 L 45,117 L 46,118 L 147,118 L 148,117 L 153,117 L 154,116 L 158,116 L 159,115 L 161,115 L 162,114 L 164,114 L 165,113 L 166,113 L 167,112 L 168,112 L 169,111 L 170,111 L 171,110 L 172,110 L 173,109 L 174,109 L 178,105 L 179,105 L 184,100 L 184,99 L 185,98 L 185,97 L 187,95 L 187,94 L 188,93 L 188,91 L 189,90 L 189,88 L 190,87 L 190,6 Z" fill="green" /></svg>